<?xml version="1.0" encoding="utf-8"?>
<!-- Generator: Adobe Illustrator 21.1.0, SVG Export Plug-In . SVG Version: 6.00 Build 0)  -->
<svg version="1.1" id="Слой_1" xmlns="http://www.w3.org/2000/svg" xmlns:xlink="http://www.w3.org/1999/xlink" x="0px" y="0px"
	 width="20px" height="38px" viewBox="0 0 53 71" style="enable-background:new 0 0 53 71;" xml:space="preserve">
<style type="text/css">
	.st0{fill:#FFFFFF;}
</style>
<g>
	<path class="st0" d="M52.9,26.2l-26-26C26.8,0.1,26.7,0,26.5,0s-0.3,0.1-0.4,0.1l-26,26C0.1,26.3,0,26.4,0,26.5s0.1,0.3,0.1,0.4
		l5.7,5.7c0,0,0,0,0,0c0.2,0.2,0.5,0.1,0.7-0.1c0,0,0,0,0,0l15-15l0,53c0,0.1,0.1,0.3,0.1,0.4S22,71,22.1,71h8.8
		c0.3,0,0.5-0.2,0.5-0.5v-53l15.1,15.1c0.2,0.2,0.5,0.2,0.7,0l5.7-5.7C53.1,26.7,53.1,26.4,52.9,26.2z"/>
</g>
</svg>
